<svg xmlns="http://www.w3.org/2000/svg" width="30" height="30" viewBox="0 0 30 30">
    <g fill="#A6A8AB" fill-rule="evenodd">
        <path fill-rule="nonzero" d="M28.16 14.992c0-7.232-5.863-13.095-13.095-13.095-7.233 0-13.096 5.863-13.096 13.095s5.863 13.095 13.096 13.095c7.232 0 13.095-5.863 13.095-13.095zm1.566 0c0 8.097-6.564 14.662-14.661 14.662-8.098 0-14.662-6.565-14.662-14.662C.403 6.895 6.967.331 15.065.331c8.097 0 14.661 6.564 14.661 14.661z"/>
        <path d="M17.626 16.912H14.77c.03.805.249 1.4.654 1.785.406.384 1.076.577 2.01.577.604 0 1.141-.092 1.611-.275l.394 2.463c-.812.183-1.614.274-2.408.274-1.648 0-2.961-.427-3.941-1.281-.98-.855-1.494-2.036-1.543-3.543h-1.51v-1.465h1.51V14.33h-1.51v-1.456h1.538c.116-1.514.683-2.695 1.703-3.543 1.019-.848 2.365-1.273 4.037-1.273.647 0 1.355.095 2.124.284l-.394 2.472a4.101 4.101 0 0 0-1.529-.284c-.842 0-1.486.191-1.931.573-.446.381-.708.972-.788 1.771h2.83v1.456H14.77v1.117h2.856v1.465z"/>
    </g>
</svg>
