<svg xmlns="http://www.w3.org/2000/svg" width="64" height="64" viewBox="0 0 64 64">
    <g fill="#59595B" fill-rule="evenodd">
        <path fill-rule="nonzero" d="M60.075 31.983c0-15.428-12.508-27.936-27.937-27.936-15.43 0-27.937 12.508-27.937 27.936 0 15.429 12.508 27.936 27.937 27.936 15.429 0 27.937-12.508 27.937-27.936zm3.341 0c0 17.274-14.004 31.278-31.278 31.278C14.863 63.261.86 49.257.86 31.983S14.863.705 32.139.705c17.273 0 31.277 14.004 31.277 31.278z"/>
        <path d="M37.603 36.078h-6.094c.065 1.719.53 2.988 1.397 3.809.865.82 2.295 1.23 4.287 1.23 1.289 0 2.435-.195 3.437-.586l.84 5.254a23.29 23.29 0 0 1-5.137.586c-3.515 0-6.318-.911-8.408-2.734s-3.187-4.343-3.29-7.559H21.41v-3.125h3.223V30.57h-3.223v-3.105h3.282c.247-3.23 1.458-5.749 3.633-7.559 2.174-1.81 5.045-2.715 8.613-2.715 1.38 0 2.89.202 4.531.606l-.84 5.273a8.75 8.75 0 0 0-3.262-.605c-1.796 0-3.17.407-4.12 1.22-.951.814-1.511 2.074-1.68 3.78h6.035v3.105h-6.094v2.383h6.094v3.125z"/>
    </g>
</svg>
