<svg xmlns="http://www.w3.org/2000/svg" width="32" height="32" viewBox="0 0 32 32">
    <path fill="#59595B" fill-rule="evenodd" d="M13.273 18.545V15.6a16.335 16.335 0 0 1-2.728-.71v3.655h2.728zm4.09 0v-2.781L16 15.818l-1.364-.054v2.781h2.728zm4.092 0v-3.654c-.873.314-1.787.545-2.728.709v2.945h2.728zm1.363-4.213v4.213h2.727v-5.85a14.043 14.043 0 0 1-2.727 1.637zM6.455 24H3.727v-2.727H1v-2.728h2.727V9h2.728v1.95c2.454 2.14 5.822 3.505 9.545 3.505s7.09-1.364 9.545-3.505V9h2.728v9.545H31v2.728h-2.727V24h-2.728v-2.727H6.455V24zm2.727-5.455v-4.213a14.043 14.043 0 0 1-2.727-1.637v5.85h2.727z"/>
</svg>
