<svg xmlns="http://www.w3.org/2000/svg" width="32" height="32" viewBox="0 0 32 32">
    <path fill="#A6A8AB" fill-rule="evenodd" d="M14 18v-3.224A18.041 18.041 0 0 1 11 14v4h3zm4 0v-3l-1.5.059L15 15v3h3zm4 0v-4c-.96.343-1.965.597-3 .776V18h3zm1-4.322V18h3v-6a15.71 15.71 0 0 1-3 1.678zM6.455 23H3.727v-2.727H1v-2.728h2.727V8h2.728v1.95c2.454 2.14 5.822 3.505 9.545 3.505s7.09-1.364 9.545-3.505V8h2.728v9.545H31v2.728h-2.727V23h-2.728v-2.727H6.455V23zM9 18v-4.322A15.71 15.71 0 0 1 6 12v6h3z"/>
</svg>
