<svg xmlns="http://www.w3.org/2000/svg" width="81" height="81" viewBox="0 0 81 81">
    <g fill="#A6A8AB" fill-rule="evenodd">
        <path d="M40.27 4.225c-19.915 0-36.117 16.187-36.117 36.084 0 19.897 16.202 36.082 36.118 36.082 19.915 0 36.117-16.185 36.117-36.082 0-19.897-16.202-36.084-36.117-36.084m0 76.316C18.066 80.541-.001 62.493-.001 40.31 0 18.123 18.066.075 40.271.075c22.204 0 40.271 18.048 40.271 40.234 0 22.184-18.067 40.232-40.271 40.232"/>
        <path d="M65.342 51.707l-6.819-3.953 6.258-1.66a1.87 1.87 0 0 0 1.325-2.28c-.264-.988-1.294-1.573-2.28-1.322l-9.864 2.616-9.205-5.335 9.205-5.334 9.866 2.616a1.867 1.867 0 0 0 2.278-1.326 1.867 1.867 0 0 0-1.327-2.276l-6.256-1.66 6.819-3.953a1.866 1.866 0 0 0 .675-2.546 1.853 1.853 0 0 0-1.136-.865 1.852 1.852 0 0 0-1.413.189l-6.961 4.038 1.723-6.48c.13-.484.06-.986-.19-1.418a1.844 1.844 0 0 0-1.133-.863 1.875 1.875 0 0 0-2.282 1.324l-2.677 10.08-8.835 5.121V25.174l7.341-7.335a1.865 1.865 0 0 0 0-2.636c-.706-.705-1.931-.705-2.637 0l-4.704 4.702v-6.499a1.865 1.865 0 0 0-3.73 0v6.5l-4.709-4.703a1.87 1.87 0 0 0-2.636 0 1.865 1.865 0 0 0 0 2.636l7.344 7.335v11.483l-9.637-5.584-2.616-9.856a1.85 1.85 0 0 0-.869-1.133 1.845 1.845 0 0 0-1.41-.189 1.858 1.858 0 0 0-1.327 2.278l1.662 6.252-8.12-4.708a1.86 1.86 0 0 0-1.414-.182 1.862 1.862 0 0 0-.453 3.41l8.259 4.786-6.487 1.72c-.48.129-.884.436-1.134.867a1.864 1.864 0 0 0 2.091 2.735l10.088-2.679 9.313 5.4-9.313 5.399-10.085-2.68a1.867 1.867 0 0 0-2.283 1.323c-.126.481-.06.983.19 1.413.249.431.654.738 1.135.867l6.485 1.72-8.258 4.787a1.864 1.864 0 0 0 .455 3.412c.473.128.98.06 1.418-.19l8.113-4.703-1.662 6.25a1.86 1.86 0 0 0 .189 1.415c.25.431.654.74 1.138.867a1.87 1.87 0 0 0 2.279-1.326l2.616-9.854 9.637-5.584v10.253l-7.344 7.337a1.862 1.862 0 1 0 2.636 2.633l4.708-4.702v7.842a1.865 1.865 0 0 0 3.73 0V58.41l4.703 4.698c.693.705 1.935.708 2.64.004a1.862 1.862 0 0 0 0-2.633l-7.342-7.337V43.127l8.835 5.12 2.677 10.083a1.878 1.878 0 0 0 2.282 1.324 1.867 1.867 0 0 0 1.323-2.28l-1.723-6.483 6.96 4.036c.43.251.928.32 1.414.191a1.853 1.853 0 0 0 1.136-.865 1.866 1.866 0 0 0-.675-2.546"/>
    </g>
</svg>
