<svg xmlns="http://www.w3.org/2000/svg" xmlns:xlink="http://www.w3.org/1999/xlink" width="39" height="40" viewBox="0 0 39 40">
    <defs>
        <path id="a" d="M0 .221h38.779V39H0z"/>
    </defs>
    <g fill="none" fill-rule="evenodd">
        <g transform="translate(0 .78)">
            <mask id="b" fill="#fff">
                <use xlink:href="#a"/>
            </mask>
            <path fill="#59595B" d="M19.39 2.22C9.8 2.22 2 10.023 2 19.61 2 29.2 9.8 37 19.39 37c9.589 0 17.39-7.8 17.39-17.39 0-9.588-7.801-17.39-17.39-17.39m0 36.78C8.699 39 0 30.302 0 19.61 0 8.92 8.699.22 19.39.22c10.69 0 19.39 8.699 19.39 19.39 0 10.692-8.7 19.39-19.39 19.39" mask="url(#b)"/>
        </g>
        <path fill="#59595B" d="M31.46 25.883l-3.282-1.905 3.013-.8a.901.901 0 0 0 .638-1.1.907.907 0 0 0-1.098-.636l-4.75 1.26-4.431-2.57 4.432-2.571 4.75 1.26a.899.899 0 0 0 .458-1.735l-3.012-.8 3.283-1.905a.9.9 0 0 0-.222-1.644.891.891 0 0 0-.68.09l-3.352 1.947.83-3.123a.892.892 0 0 0-.092-.683.888.888 0 0 0-.545-.416.903.903 0 0 0-1.1.638l-1.288 4.858-4.254 2.468v-5.42l3.535-3.535a.9.9 0 0 0 0-1.27.918.918 0 0 0-1.27 0l-2.265 2.266V7.425a.899.899 0 0 0-1.796 0v3.132L16.695 8.29a.9.9 0 0 0-1.27 0 .9.9 0 0 0 0 1.27l3.537 3.535v5.534l-4.64-2.691-1.26-4.75a.891.891 0 0 0-.418-.546.888.888 0 0 0-.68-.091.896.896 0 0 0-.639 1.098l.8 3.013-3.908-2.27a.895.895 0 0 0-.681-.087.898.898 0 0 0-.218 1.643l3.976 2.307-3.123.829a.895.895 0 0 0-.218 1.646c.208.12.449.152.679.09l4.857-1.291 4.484 2.602-4.484 2.602-4.856-1.291a.898.898 0 1 0-.461 1.736l3.122.829-3.976 2.307a.899.899 0 0 0 .902 1.553l3.906-2.267-.8 3.012a.897.897 0 1 0 1.736.46l1.26-4.748 4.64-2.691v4.94l-3.536 3.537a.898.898 0 0 0 1.269 1.269l2.267-2.266v3.779a.898.898 0 0 0 1.796 0v-3.78l2.264 2.265c.334.34.932.34 1.27.002.35-.35.35-.92 0-1.27l-3.534-3.535v-4.827l4.254 2.468 1.289 4.859a.904.904 0 0 0 1.099.638.9.9 0 0 0 .637-1.1l-.83-3.123 3.35 1.945a.886.886 0 0 0 .682.092.9.9 0 0 0 .222-1.644"/>
    </g>
</svg>
