<svg xmlns="http://www.w3.org/2000/svg" width="82" height="82" viewBox="0 0 82 82">
    <g fill="none" fill-rule="evenodd">
        <path fill="#FFF" stroke="#59595B" stroke-width="4.4" d="M79.165 41.174c0 21.036-17.05 38.085-38.084 38.085-21.036 0-38.087-17.049-38.087-38.085 0-21.033 17.05-38.082 38.087-38.082 21.033 0 38.084 17.049 38.084 38.082z"/>
        <path fill="#59595B" d="M29.779 37.529l-2.85 7.292h5.734l-2.884-7.292zm-1.988-6.825h4.275l10.206 23.461h-5.833l-2.02-4.973h-9.114l-1.953 4.973h-5.7l10.139-23.46zM59.967 36.803a5.046 5.046 0 0 0-1.872-1.427c-.74-.333-1.598-.496-2.567-.496-.973 0-1.872.187-2.7.562a6.46 6.46 0 0 0-2.155 1.576 7.341 7.341 0 0 0-1.426 2.4 8.699 8.699 0 0 0-.513 3.016c0 1.103.173 2.115.513 3.032a7.499 7.499 0 0 0 1.411 2.386 6.369 6.369 0 0 0 2.102 1.575 6.089 6.089 0 0 0 2.6.564c1.06 0 2-.221 2.818-.665A5.532 5.532 0 0 0 60.2 47.47l4.307 3.217c-.992 1.391-2.253 2.418-3.776 3.079a11.699 11.699 0 0 1-4.705.996c-1.835 0-3.527-.288-5.072-.863-1.547-.574-2.881-1.397-4.007-2.468-1.13-1.069-2.008-2.368-2.635-3.893-.63-1.525-.946-3.224-.946-5.104 0-1.877.316-3.577.946-5.103.627-1.525 1.505-2.822 2.635-3.893 1.126-1.07 2.46-1.893 4.007-2.468 1.545-.575 3.237-.863 5.072-.863.66 0 1.351.062 2.069.182.72.121 1.424.316 2.12.582a9.476 9.476 0 0 1 2.008 1.058 8.088 8.088 0 0 1 1.722 1.626l-3.978 3.248z"/>
    </g>
</svg>
