<svg xmlns="http://www.w3.org/2000/svg" width="82" height="82" viewBox="0 0 82 82">
    <g fill="none" fill-rule="evenodd">
        <path fill="#FFF" stroke="#A6A8AB" stroke-width="4.4" d="M79.165 41.174c0 21.036-17.05 38.085-38.084 38.085-21.036 0-38.087-17.049-38.087-38.085 0-21.033 17.05-38.082 38.087-38.082 21.033 0 38.084 17.049 38.084 38.082z"/>
        <path fill="#A6A8AB" d="M63.322 51.44H60.61c-.658-3.263-3.547-5.728-7.002-5.728-3.455 0-6.343 2.465-7.002 5.729h-1.731c-.659-3.264-3.548-5.729-7.002-5.729-3.455 0-6.343 2.465-7.002 5.729h-6.487v-.006h-.869V26.897h39.808v24.544zm-9.715 5.663a4.252 4.252 0 0 1-4.247-4.247 4.252 4.252 0 0 1 4.247-4.247 4.252 4.252 0 0 1 4.247 4.247 4.252 4.252 0 0 1-4.247 4.247zm-15.735 0a4.252 4.252 0 0 1-4.247-4.247 4.251 4.251 0 0 1 4.247-4.247 4.252 4.252 0 0 1 4.247 4.247 4.252 4.252 0 0 1-4.247 4.247zM64.77 24H22.066c-.8 0-1.449.648-1.449 1.448v25.987h-5.72v-3.97a1.448 1.448 0 1 0-2.897 0v6.867h10.012c.018.001.035.006.054.006h8.819c.684 3.23 3.556 5.662 6.987 5.662 3.43 0 6.303-2.433 6.987-5.662h1.761c.684 3.23 3.556 5.662 6.987 5.662 3.43 0 6.303-2.433 6.987-5.662h4.177c.8 0 1.448-.649 1.448-1.449V25.45c0-.8-.648-1.449-1.448-1.449z"/>
    </g>
</svg>
