<svg xmlns="http://www.w3.org/2000/svg" width="82" height="82" viewBox="0 0 82 82">
    <g fill="none" fill-rule="evenodd">
        <path fill="#FFF" stroke="#59595B" stroke-width="4.4" d="M79.165 41.174c0 21.036-17.05 38.085-38.084 38.085-21.036 0-38.087-17.049-38.087-38.085 0-21.033 17.05-38.082 38.087-38.082 21.033 0 38.084 17.049 38.084 38.082z"/>
        <path fill="#59595B" d="M63.115 51.44h-2.702c-.656-3.263-3.533-5.728-6.974-5.728-3.44 0-6.318 2.465-6.974 5.729h-1.724c-.656-3.264-3.533-5.729-6.974-5.729-3.44 0-6.317 2.465-6.973 5.729h-6.461v-.006h-.865V26.897h39.647v24.544zm-9.676 5.663c-2.332 0-4.23-1.906-4.23-4.247 0-2.342 1.898-4.247 4.23-4.247 2.332 0 4.23 1.905 4.23 4.247 0 2.341-1.898 4.247-4.23 4.247zm-15.672 0c-2.332 0-4.23-1.906-4.23-4.247 0-2.342 1.898-4.247 4.23-4.247 2.332 0 4.23 1.905 4.23 4.247 0 2.341-1.898 4.247-4.23 4.247zM64.557 24H22.025c-.797 0-1.443.648-1.443 1.448v25.987h-5.697v-3.97c0-.802-.646-1.45-1.442-1.45-.797 0-1.443.648-1.443 1.45v6.867h9.972c.017.001.035.006.053.006h8.784C31.49 57.568 34.35 60 37.767 60c3.417 0 6.277-2.433 6.959-5.662h1.754C47.162 57.568 50.022 60 53.44 60s6.277-2.433 6.959-5.662h4.16c.796 0 1.442-.649 1.442-1.449V25.45c0-.8-.646-1.449-1.443-1.449z"/>
    </g>
</svg>
