<svg xmlns="http://www.w3.org/2000/svg" width="80" height="72" viewBox="0 0 80 72">
    <g fill="#A6A8AB" fill-rule="evenodd">
        <path d="M73.853 65.67H6.313L40.082 7.2l33.77 58.47zm5.694.154L42.792 2.184A3.138 3.138 0 0 0 40.082.62c-1.113 0-2.15.6-2.708 1.566L.618 65.825a3.154 3.154 0 0 0-.003 3.139 3.14 3.14 0 0 0 2.712 1.57h73.511a3.138 3.138 0 0 0 2.71-4.71z"/>
        <path d="M42.83 43.876h-5.495a.705.705 0 0 1-.705-.706V30.74c0-.39.316-.707.705-.707h5.496c.389 0 .704.317.704.707v12.43c0 .39-.315.706-.704.706M42.83 57.72h-5.495a.705.705 0 0 1-.705-.706v-5.51c0-.39.316-.706.705-.706h5.496c.389 0 .704.317.704.706v5.51c0 .39-.315.706-.704.706"/>
    </g>
</svg>
