<svg xmlns="http://www.w3.org/2000/svg" width="80" height="70" viewBox="0 0 80 70">
    <g fill="#59595B" fill-rule="evenodd">
        <path d="M73.853 65.13H6.313l33.77-58.238 33.77 58.238zm5.694.152L42.792 1.897a3.14 3.14 0 0 0-2.71-1.56 3.141 3.141 0 0 0-2.708 1.56L.618 65.282a3.13 3.13 0 0 0-.003 3.127 3.141 3.141 0 0 0 2.712 1.565h73.511a3.14 3.14 0 0 0 2.712-1.565 3.128 3.128 0 0 0-.003-3.127z"/>
        <path d="M42.83 43.422h-5.495a.704.704 0 0 1-.705-.703V30.338c0-.389.316-.704.705-.704h5.496c.389 0 .704.315.704.704v12.38a.704.704 0 0 1-.704.704M42.83 57.21h-5.495a.704.704 0 0 1-.705-.703V51.02c0-.389.316-.704.705-.704h5.496c.389 0 .704.315.704.704v5.487a.704.704 0 0 1-.704.703"/>
    </g>
</svg>
