<svg xmlns="http://www.w3.org/2000/svg" width="80" height="61" viewBox="0 0 80 61">
    <g fill="#59595B" fill-rule="evenodd">
        <path d="M40.053 10.9c11.437 0 22.164 4.175 30.405 11.793l5.042-5.015C65.844 8.7 53.326 3.776 40.053 3.776 26.78 3.776 14.262 8.7 4.605 17.678l5.043 5.015C17.888 15.075 28.615 10.9 40.053 10.9m30.426 16.08h-.003a1.803 1.803 0 0 1-1.27-.527c-7.716-7.728-18.07-11.984-29.153-11.984-11.083 0-21.437 4.256-29.153 11.984a1.804 1.804 0 0 1-1.27.527h-.004c-.475 0-.932-.188-1.268-.523l-7.58-7.538a1.778 1.778 0 0 1 0-2.523C11.274 5.956 25.222.208 40.053.208c14.83 0 28.778 5.749 39.275 16.188a1.78 1.78 0 0 1 0 2.523l-7.58 7.538a1.8 1.8 0 0 1-1.269.523"/>
        <path d="M19.834 32.824l5.054 5.027c4.215-3.601 9.535-5.565 15.165-5.565 5.63 0 10.95 1.964 15.165 5.565l5.054-5.027c-5.587-4.954-12.7-7.662-20.22-7.662-7.518 0-14.631 2.708-20.218 7.662m5.006 9.286c-.46 0-.918-.174-1.269-.522l-7.58-7.539c-.7-.696-.7-1.827 0-2.523 6.44-6.405 14.985-9.933 24.062-9.933 9.077 0 17.621 3.528 24.061 9.933.7.696.7 1.827 0 2.523l-7.58 7.539c-.672.669-1.863.669-2.537 0-3.717-3.697-8.669-5.733-13.944-5.733s-10.227 2.036-13.945 5.733c-.35.348-.81.522-1.268.522"/>
        <path d="M40.053 44.772c-3.366 0-6.105 2.724-6.105 6.072 0 3.347 2.739 6.07 6.105 6.07 3.366 0 6.104-2.723 6.104-6.07 0-3.348-2.738-6.072-6.104-6.072m0 15.711c-5.345 0-9.693-4.324-9.693-9.64 0-5.316 4.348-9.64 9.693-9.64s9.693 4.324 9.693 9.64c0 5.316-4.348 9.64-9.693 9.64"/>
    </g>
</svg>
