<svg xmlns="http://www.w3.org/2000/svg" width="30" height="23" viewBox="0 0 30 23">
    <g fill="#A6A8AB" fill-rule="evenodd">
        <path d="M15.02 4.119c4.289 0 8.311 1.577 11.402 4.456l1.89-1.895A19.324 19.324 0 0 0 15.02 1.427c-4.977 0-9.672 1.86-13.293 5.253l1.89 1.895C6.709 5.696 10.732 4.12 15.02 4.12m11.41 6.076h-.002a.674.674 0 0 1-.476-.2c-2.893-2.92-6.776-4.527-10.932-4.527-4.156 0-8.039 1.608-10.933 4.528a.674.674 0 0 1-.476.199H3.61a.671.671 0 0 1-.476-.198L.292 7.15a.675.675 0 0 1 0-.954C4.228 2.251 9.458.078 15.02.078c5.561 0 10.792 2.173 14.728 6.117a.675.675 0 0 1 0 .954l-2.843 2.848a.672.672 0 0 1-.475.198"/>
        <path d="M7.438 12.403l1.895 1.9A8.666 8.666 0 0 1 15.02 12.2c2.111 0 4.106.742 5.687 2.103l1.895-1.9a11.315 11.315 0 0 0-7.582-2.895c-2.82 0-5.487 1.023-7.582 2.895m1.877 3.51a.67.67 0 0 1-.476-.198l-2.842-2.849a.675.675 0 0 1 0-.953 12.666 12.666 0 0 1 9.023-3.754c3.404 0 6.608 1.333 9.023 3.754a.675.675 0 0 1 0 .953L21.2 15.715a.692.692 0 0 1-.952 0 7.337 7.337 0 0 0-5.23-2.166c-1.977 0-3.834.769-5.228 2.166a.67.67 0 0 1-.476.197"/>
        <path d="M15.02 16.918a2.294 2.294 0 0 0 0 4.588 2.294 2.294 0 0 0 0-4.588m0 5.937a3.643 3.643 0 0 1 0-7.285 3.643 3.643 0 0 1 0 7.285"/>
    </g>
</svg>
