<svg xmlns="http://www.w3.org/2000/svg" width="80" height="61" viewBox="0 0 80 61">
    <path fill="#59595B" fill-rule="evenodd" d="M40.603 58.631l-6.245-41.763-4.273 31.46a2.062 2.062 0 0 1-1.822 1.767c-.94.11-1.84-.439-2.174-1.323l-7.078-18.79H2.441a2.065 2.065 0 0 1-2.073-2.057c0-1.135.928-2.057 2.073-2.057H20.45c.865 0 1.64.534 1.942 1.337l4.69 12.448 5.124-37.736a2.067 2.067 0 0 1 2.04-1.783c1.041 0 1.914.746 2.065 1.756l6.757 45.19 5.687-25.212a2.065 2.065 0 0 1 1.675-1.577c.822-.14 1.662.23 2.107.938l4.027 6.399 2.068-4.616a2.075 2.075 0 0 1 1.853-1.221c.854.008 1.546.432 1.9 1.146l1.46 2.931h13.741c1.146 0 2.073.922 2.073 2.057a2.065 2.065 0 0 1-2.073 2.057H62.556a2.075 2.075 0 0 1-1.858-1.146l-1.934 4.001a2.072 2.072 0 0 1-1.75 1.216 2.057 2.057 0 0 1-1.903-.962l-3.415-5.428-7.019 31.115a2.07 2.07 0 0 1-2.023 1.607c-1.074-.037-1.905-.774-2.051-1.754z"/>
</svg>
