<svg xmlns="http://www.w3.org/2000/svg" width="30" height="24" viewBox="0 0 30 24">
    <path fill="#9B9B9B" fill-rule="evenodd" d="M15.226 22.638L12.884 6.742l-1.602 11.974a.776.776 0 1 1-1.499.17L7.13 11.733H.916a.78.78 0 0 1-.778-.783.78.78 0 0 1 .778-.783h6.752c.325 0 .615.203.729.509l1.758 4.737 1.922-14.362a.779.779 0 0 1 .765-.678.78.78 0 0 1 .774.668l2.534 17.2 2.133-9.596a.777.777 0 0 1 1.418-.243l1.51 2.435.776-1.757a.778.778 0 0 1 .695-.465c.32.003.58.165.712.436l.548 1.116h5.152c.43 0 .778.35.778.783a.78.78 0 0 1-.778.783H23.46a.777.777 0 0 1-.697-.436l-.725 1.522a.777.777 0 0 1-.657.463.768.768 0 0 1-.713-.366l-1.28-2.066-2.633 11.843a.779.779 0 0 1-.759.611.786.786 0 0 1-.769-.667z"/>
</svg>
