<svg xmlns="http://www.w3.org/2000/svg" width="80" height="59" viewBox="0 0 80 59">
    <g fill="#59595B" fill-rule="evenodd">
        <path d="M70.168 22.089c-.483.2-.779.704-.722 1.233.481 4.573 1.019 7.79 1.493 10.628.552 3.298.997 5.97 1.076 9.38l-.955.095c-9.392.933-18.263 1.814-30.819 1.823-12.558-.009-21.429-.89-30.82-1.822l-.956-.095c.079-3.411.524-6.083 1.076-9.381.474-2.838 1.012-6.055 1.493-10.628a1.196 1.196 0 0 0-.722-1.233l-6.884-2.85.21-1.27h9.006c-.27 2.043.284 3.397.874 4.22.934 1.301 2.446 2.054 4.352 2.045 3.299-.225 5.707-.533 8.036-.83 3.798-.488 7.386-.949 14.334-.949 6.948 0 10.536.46 14.335.948 2.328.298 4.736.606 8.113.834 1.783 0 3.341-.747 4.275-2.048.59-.823 1.142-2.178.873-4.22h9.006l.21 1.27-6.884 2.85zm-49.49-19.22h39.125l5.46 14.239c.465 1.58.405 2.847-.184 3.668-.489.683-1.36 1.074-2.313 1.077-3.23-.22-5.605-.525-7.901-.82-3.874-.496-7.532-.964-14.625-.964-7.094 0-10.751.468-14.625.965-2.295.294-4.67.598-7.822.816-1.031 0-1.902-.39-2.391-1.073-.589-.822-.65-2.09-.186-3.67L20.678 2.87zm58.834 16.915l-.534-3.21a1.174 1.174 0 0 0-1.15-.993H67.187l-5.5-14.342A1.169 1.169 0 0 0 60.598.48H19.882c-.481 0-.913.301-1.088.758l-5.5 14.342H2.651c-.569 0-1.055.42-1.15.994l-.534 3.21a1.198 1.198 0 0 0 .712 1.306l6.936 2.871c-.449 4.033-.941 6.972-1.377 9.586-.627 3.751-1.121 6.715-1.121 10.865 0 .615.455 1.129 1.055 1.189l2.022.2c9.398.933 18.278 1.814 30.838 1.833H40.472c12.547-.02 21.422-.9 30.814-1.834l2.021-.2a1.185 1.185 0 0 0 1.056-1.188c0-4.15-.495-7.114-1.121-10.865-.437-2.614-.929-5.553-1.378-9.586l6.936-2.871c.507-.21.804-.754.712-1.307z"/>
        <path d="M72.76 46.971c-9.79 1.063-18.656 1.725-32.52 1.73-13.863-.005-22.73-.667-32.521-1.73a1.188 1.188 0 0 0-1.284 1.061c-.068.655.397 1.244 1.038 1.314 9.819 1.066 18.716 1.731 32.567 1.744h.4c13.851-.013 22.748-.678 32.567-1.744.642-.07 1.107-.659 1.039-1.314a1.19 1.19 0 0 0-1.285-1.06M19.523 51.614a1.18 1.18 0 0 0-1.167 1.192c0 1.435 0 2.674-.296 2.877-.514.352-2.388.352-4.98.352h-.235c-1.668 0-3.108 0-3.393-.3-.33-.347-.33-2.175-.33-3.788 0-.658-.523-1.193-1.168-1.193-.645 0-1.168.535-1.168 1.193 0 5.87.566 6.474 6.058 6.475h.235c6.45 0 7.612 0 7.612-5.616a1.18 1.18 0 0 0-1.168-1.192M72.527 50.754c-.645 0-1.168.535-1.168 1.193 0 1.613 0 3.44-.331 3.788-.285.3-1.725.3-3.393.3h-.233c-2.594 0-4.467 0-4.982-.352-.295-.203-.295-1.442-.295-2.877a1.18 1.18 0 0 0-1.168-1.192 1.18 1.18 0 0 0-1.168 1.192c0 5.616 1.162 5.616 7.613 5.616h.234c5.492-.001 6.058-.606 6.058-6.475 0-.658-.522-1.193-1.167-1.193M25.112 36.309c-.652 0-1.67-.23-2.75-.476-1.483-.337-3.163-.719-4.749-.719-.52 0-1.011.043-1.457.126a1.26 1.26 0 0 0-.152.039c-.42.14-.804.211-1.136.211-1.178 0-1.353-.927-1.353-1.48 0-.861.528-2.212 1.932-2.296 3.657 1.007 9.511 2.649 9.835 4.589a1.918 1.918 0 0 1-.17.006m-9.221-6.946a1.162 1.162 0 0 0-.304-.04c-2.758 0-4.407 2.383-4.407 4.687 0 2.277 1.516 3.867 3.687 3.867h.001c.554 0 1.15-.1 1.775-.3 1.394-.235 3.486.194 5.212.587 1.26.285 2.349.533 3.257.533 2.342 0 2.524-1.747 2.524-2.283 0-3.813-5.97-5.459-11.745-7.05M65.613 35.49a3.65 3.65 0 0 1-1.138-.211 1.26 1.26 0 0 0-.152-.04 8.026 8.026 0 0 0-1.457-.125c-1.586 0-3.266.382-4.748.719-1.079.245-2.097.476-2.75.476-.073 0-.133-.002-.182-.007.227-1.909 6.156-3.571 9.846-4.588 1.405.084 1.932 1.435 1.932 2.296 0 .553-.176 1.48-1.351 1.48m-.72-6.168c-.103 0-.205.015-.304.041-5.774 1.592-11.745 3.238-11.745 7.051 0 1.044.537 1.59.856 1.822.426.31.97.46 1.669.46.908 0 1.995-.247 3.255-.532 1.728-.393 3.821-.822 5.211-.587 3.073.982 5.465-.71 5.465-3.567 0-2.303-1.649-4.688-4.407-4.688M49.804 36.309H30.676c-.645 0-1.168.535-1.168 1.193 0 .66.523 1.195 1.168 1.195h19.128c.645 0 1.168-.535 1.168-1.195 0-.658-.523-1.193-1.168-1.193"/>
    </g>
</svg>
