<svg xmlns="http://www.w3.org/2000/svg" width="30" height="22" viewBox="0 0 30 22">
    <g fill="#A6A8AB" fill-rule="evenodd">
        <path d="M26.313 8.104a.438.438 0 0 0-.27.452c.18 1.678.381 2.858.56 3.9.206 1.21.373 2.19.403 3.44l-.358.035c-3.523.343-6.85.666-11.558.67-4.709-.004-8.035-.327-11.557-.67l-.359-.034c.03-1.251.197-2.232.404-3.442.178-1.04.38-2.22.56-3.899a.438.438 0 0 0-.271-.452L1.285 7.058l.08-.466h3.377c-.101.75.106 1.247.327 1.549.35.477.917.753 1.632.75a48.134 48.134 0 0 0 3.014-.305c1.424-.179 2.77-.348 5.375-.348s3.95.17 5.376.348c.873.11 1.776.222 3.042.306.669 0 1.253-.274 1.603-.751.221-.302.429-.8.328-1.549h3.377l.079.466-2.582 1.046zM7.754 1.053h14.672l2.048 5.223c.174.58.151 1.045-.07 1.346-.183.25-.51.394-.867.395-1.211-.08-2.102-.192-2.963-.3-1.452-.183-2.824-.354-5.484-.354s-4.032.171-5.484.354c-.861.108-1.752.22-2.934.3-.386 0-.713-.144-.896-.394-.221-.302-.244-.767-.07-1.347l2.048-5.223zm22.063 6.205l-.2-1.177a.437.437 0 0 0-.432-.365h-3.99L23.132.454a.438.438 0 0 0-.408-.277H7.456c-.18 0-.343.11-.408.277L4.985 5.716H.995a.437.437 0 0 0-.432.365l-.2 1.177a.438.438 0 0 0 .267.48l2.6 1.053c-.167 1.48-.352 2.558-.516 3.517-.235 1.376-.42 2.463-.42 3.986 0 .226.171.414.396.436l.758.073c3.524.343 6.854.666 11.564.673H15.177c4.705-.007 8.033-.33 11.555-.673l.758-.073a.438.438 0 0 0 .396-.436c0-1.523-.185-2.61-.42-3.986-.164-.959-.349-2.037-.517-3.517l2.601-1.053a.438.438 0 0 0 .267-.48z"/>
        <path d="M27.285 17.232c-3.671.39-6.996.633-12.195.635-5.199-.002-8.524-.245-12.195-.635a.443.443 0 0 0-.482.39.438.438 0 0 0 .39.482c3.681.39 7.018.635 12.212.64H15.165c5.194-.005 8.53-.25 12.213-.64a.438.438 0 0 0 .39-.482.444.444 0 0 0-.483-.39M7.321 18.936a.438.438 0 0 0-.438.437c0 .527 0 .981-.11 1.056-.193.129-.896.129-1.868.129h-.088c-.626 0-1.166 0-1.272-.11-.125-.128-.125-.798-.125-1.39a.438.438 0 0 0-.875 0c0 2.153.212 2.375 2.271 2.375h.089c2.418 0 2.854 0 2.854-2.06a.438.438 0 0 0-.438-.437M27.197 18.62a.438.438 0 0 0-.437.438c0 .592 0 1.262-.125 1.39-.106.11-.646.11-1.272.11h-.087c-.973 0-1.675 0-1.868-.13-.111-.074-.111-.528-.111-1.055a.438.438 0 0 0-.876 0c0 2.06.436 2.06 2.855 2.06h.088c2.059 0 2.271-.222 2.271-2.375a.438.438 0 0 0-.438-.438M9.417 13.32c-.244 0-.627-.084-1.031-.174-.556-.123-1.186-.263-1.78-.263-.196 0-.38.015-.547.046a.481.481 0 0 0-.057.014 1.395 1.395 0 0 1-.426.077c-.442 0-.508-.34-.508-.543 0-.316.198-.811.725-.842 1.371.37 3.566.972 3.688 1.684a.735.735 0 0 1-.064.002M5.96 10.773a.445.445 0 0 0-.114-.015c-1.034 0-1.652.874-1.652 1.72 0 .835.568 1.418 1.382 1.418.208 0 .432-.037.666-.11.523-.086 1.307.071 1.955.215.472.105.88.196 1.221.196.878 0 .946-.641.946-.837 0-1.4-2.239-2.003-4.404-2.587M24.605 13.02c-.125 0-.269-.025-.427-.077a.481.481 0 0 0-.057-.014 3.075 3.075 0 0 0-.546-.046c-.595 0-1.225.14-1.78.263-.405.09-.787.175-1.032.175-.028 0-.05-.001-.068-.003.085-.7 2.308-1.31 3.692-1.683.527.03.725.526.725.842 0 .203-.066.543-.507.543m-.27-2.262a.445.445 0 0 0-.114.015c-2.166.584-4.405 1.188-4.405 2.587 0 .382.202.583.321.668.16.113.365.169.626.169.34 0 .749-.09 1.221-.196.648-.144 1.433-.301 1.954-.215 1.152.36 2.05-.26 2.05-1.309 0-.845-.619-1.72-1.653-1.72M18.677 13.32h-7.174a.438.438 0 0 0 0 .877h7.174a.438.438 0 0 0 0-.876"/>
    </g>
</svg>
